<mxfile host="app.diagrams.net" agent="Mozilla/5.0 (X11; Ubuntu; Linux x86_64; rv:135.0) Gecko/20100101 Firefox/135.0" version="26.0.13">
  <diagram name="PÃ¡gina-1" id="loMj4vzFIcWx5IlvLi8O">
    <mxGraphModel dx="880" dy="377" grid="1" gridSize="10" guides="1" tooltips="1" connect="1" arrows="1" fold="1" page="1" pageScale="1" pageWidth="827" pageHeight="1169" background="none" math="0" shadow="0">
      <root>
        <mxCell id="0" />
        <mxCell id="1" parent="0" />
        <mxCell id="2" value="Requisitos" style="rounded=1;arcSize=20;strokeWidth=2" parent="1" vertex="1">
          <mxGeometry x="8" y="268" width="105" height="54" as="geometry" />
        </mxCell>
        <mxCell id="3" value="Usuarios" style="rounded=1;arcSize=20;strokeWidth=2" parent="1" vertex="1">
          <mxGeometry x="163" y="268" width="93" height="54" as="geometry" />
        </mxCell>
        <mxCell id="4" value="Master" style="rounded=1;arcSize=20;strokeWidth=2" parent="1" vertex="1">
          <mxGeometry x="374" y="60" width="79" height="54" as="geometry" />
        </mxCell>
        <mxCell id="5" value="Gerente" style="rounded=1;arcSize=20;strokeWidth=2" parent="1" vertex="1">
          <mxGeometry x="370" y="268" width="88" height="54" as="geometry" />
        </mxCell>
        <mxCell id="6" value="Funcionario" style="rounded=1;arcSize=20;strokeWidth=2" parent="1" vertex="1">
          <mxGeometry x="357" y="482" width="114" height="54" as="geometry" />
        </mxCell>
        <mxCell id="7" value="Master Financeiro" style="rounded=1;arcSize=20;strokeWidth=2" parent="1" vertex="1">
          <mxGeometry x="707.5" y="6" width="158" height="54" as="geometry" />
        </mxCell>
        <mxCell id="8" value="Master Geral" style="rounded=1;arcSize=20;strokeWidth=2" parent="1" vertex="1">
          <mxGeometry x="725" y="110" width="123" height="54" as="geometry" />
        </mxCell>
        <mxCell id="9" value="Gerente Financeiro" style="rounded=1;arcSize=20;strokeWidth=2" parent="1" vertex="1">
          <mxGeometry x="717" y="190" width="167" height="54" as="geometry" />
        </mxCell>
        <mxCell id="10" value="Gerente Aluguel" style="rounded=1;arcSize=20;strokeWidth=2" parent="1" vertex="1">
          <mxGeometry x="708" y="350" width="146" height="54" as="geometry" />
        </mxCell>
        <mxCell id="11" value="Nome do Funcionario" style="rounded=1;arcSize=20;strokeWidth=2" parent="1" vertex="1">
          <mxGeometry x="689.5" y="440" width="183" height="54" as="geometry" />
        </mxCell>
        <mxCell id="12" value="Outros campos do Funcionario" style="rounded=1;arcSize=20;strokeWidth=2" parent="1" vertex="1">
          <mxGeometry x="666" y="528" width="230" height="78" as="geometry" />
        </mxCell>
        <mxCell id="13" value="" style="curved=1;startArrow=none;endArrow=block;exitX=1;exitY=0.5;entryX=0;entryY=0.5;" parent="1" source="2" target="3" edge="1">
          <mxGeometry relative="1" as="geometry">
            <Array as="points" />
          </mxGeometry>
        </mxCell>
        <mxCell id="14" value="3 tipos" style="curved=1;startArrow=none;endArrow=block;exitX=0.63;exitY=0;entryX=0;entryY=0.5;" parent="1" source="3" target="4" edge="1">
          <mxGeometry relative="1" as="geometry">
            <Array as="points">
              <mxPoint x="306" y="87" />
            </Array>
          </mxGeometry>
        </mxCell>
        <mxCell id="15" value="3 tipos" style="curved=1;startArrow=none;endArrow=block;exitX=1;exitY=0.5;entryX=0;entryY=0.5;" parent="1" source="3" target="5" edge="1">
          <mxGeometry relative="1" as="geometry">
            <Array as="points" />
          </mxGeometry>
        </mxCell>
        <mxCell id="16" value="3 tipos" style="curved=1;startArrow=none;endArrow=block;exitX=0.63;exitY=1;entryX=0;entryY=0.5;" parent="1" source="3" target="6" edge="1">
          <mxGeometry relative="1" as="geometry">
            <Array as="points">
              <mxPoint x="306" y="509" />
            </Array>
          </mxGeometry>
        </mxCell>
        <mxCell id="17" value="financeiro e geral" style="curved=1;startArrow=none;endArrow=block;exitX=1;exitY=0.24;entryX=0;entryY=0.5;" parent="1" source="4" target="7" edge="1">
          <mxGeometry relative="1" as="geometry">
            <Array as="points">
              <mxPoint x="563" y="35" />
            </Array>
          </mxGeometry>
        </mxCell>
        <mxCell id="18" value="financeiro e geral" style="curved=1;startArrow=none;endArrow=block;exitX=1;exitY=0.76;entryX=0;entryY=0.5;" parent="1" source="4" target="8" edge="1">
          <mxGeometry relative="1" as="geometry">
            <Array as="points">
              <mxPoint x="563" y="139" />
            </Array>
          </mxGeometry>
        </mxCell>
        <mxCell id="19" value="financeiro, aluguel" style="curved=1;startArrow=none;endArrow=block;exitX=1;exitY=0.22;entryX=0;entryY=0.5;" parent="1" source="5" target="9" edge="1">
          <mxGeometry relative="1" as="geometry">
            <Array as="points">
              <mxPoint x="563" y="243" />
            </Array>
          </mxGeometry>
        </mxCell>
        <mxCell id="20" value="financeiro, aluguel" style="curved=1;startArrow=none;endArrow=block;exitX=1;exitY=0.78;entryX=0;entryY=0.5;" parent="1" source="5" target="10" edge="1">
          <mxGeometry relative="1" as="geometry">
            <Array as="points">
              <mxPoint x="563" y="347" />
            </Array>
          </mxGeometry>
        </mxCell>
        <mxCell id="21" value="nome" style="curved=1;startArrow=none;endArrow=block;exitX=1;exitY=0.09;entryX=0;entryY=0.5;" parent="1" source="6" target="11" edge="1">
          <mxGeometry relative="1" as="geometry">
            <Array as="points">
              <mxPoint x="563" y="451" />
            </Array>
          </mxGeometry>
        </mxCell>
        <mxCell id="22" value="outros campos" style="curved=1;startArrow=none;endArrow=block;exitX=1;exitY=0.91;entryX=0;entryY=0.5;" parent="1" source="6" target="12" edge="1">
          <mxGeometry relative="1" as="geometry">
            <Array as="points">
              <mxPoint x="563" y="567" />
            </Array>
          </mxGeometry>
        </mxCell>
        <mxCell id="wElRRixkhDuZ7S3lFu41-22" value="Gerente Hotel" style="rounded=1;arcSize=20;strokeWidth=2" parent="1" vertex="1">
          <mxGeometry x="717" y="268" width="167" height="54" as="geometry" />
        </mxCell>
        <mxCell id="wElRRixkhDuZ7S3lFu41-28" value="" style="edgeStyle=orthogonalEdgeStyle;rounded=0;orthogonalLoop=1;jettySize=auto;html=1;exitX=1;exitY=0.5;exitDx=0;exitDy=0;entryX=0;entryY=0.5;entryDx=0;entryDy=0;" parent="1" source="5" target="wElRRixkhDuZ7S3lFu41-22" edge="1">
          <mxGeometry relative="1" as="geometry">
            <mxPoint x="458" y="295" as="sourcePoint" />
            <mxPoint x="681" y="317" as="targetPoint" />
            <Array as="points">
              <mxPoint x="678" y="295" />
            </Array>
          </mxGeometry>
        </mxCell>
        <mxCell id="L9JYvRjV0OzuE5mmGA4C-29" value="Financeiro, hotel" style="text;html=1;align=center;verticalAlign=middle;whiteSpace=wrap;rounded=0;" parent="1" vertex="1">
          <mxGeometry x="570" y="268" width="60" height="30" as="geometry" />
        </mxCell>
      </root>
    </mxGraphModel>
  </diagram>
</mxfile>
